# xmcd
#
# Track frame offsets:
#	150
#	11722
#	22387
#	34957
#	49095
#	61545
#	75990
#	86907
#	98142
#	110527
#	124730
#	144270
#	157902
#	170137
#	184295
#	198102
#
# Disc length: 2795
#
# Revision: 7
# Processed by: cddbd v1.5.1PL0 Copyright (c) Steve Scherf et al.
# Submitted via: ExactAudioCopy v0.90b4
# Normalized: r6:DSETVAR1
#
DISCID=d10ae910
DTITLE=Various Artist - Chess Blues Classics: 1957 to 1967
DYEAR=1997
DGENRE=Blues
TTITLE0=Howlin' Wolf - Sitting on Top of the World
TTITLE1=Sonny Boy Williamson - Fattening Frogs for Snakes
TTITLE2=Little Walter - Key to the Highway
TTITLE3=Muddy Waters - Take the Bitter with the Sweet
TTITLE4=Howlin' Wolf - Spoonful
TTITLE5=Otis Rush - So Many Roads, So Many Trains
TTITLE6=Elmore James - Madison Blues
TTITLE7=Howlin' Wolf - The Red Rooster
TTITLE8=Muddy Waters - You Shook Me
TTITLE9=Sonny Boy Williamson - Help Me
TTITLE10=Etta James - Baby, What You Want Me to Do [Live]
TTITLE11=Buddy Guy - My Time After a While
TTITLE12=Little Milton - We're Gonna Make It
TTITLE13=Koko Taylor - I Got What It Takes
TTITLE14=John Lee Hooker - One Bourbon, One Scotch and One Beer
TTITLE15=Etta James - I'd Rather Go Blind
EXTD=YEAR: 1997 ID3G: 0
EXTT0=
EXTT1=
EXTT2=
EXTT3=
EXTT4=
EXTT5=
EXTT6=
EXTT7=
EXTT8=
EXTT9=
EXTT10=
EXTT11=
EXTT12=
EXTT13=
EXTT14=
EXTT15=
PLAYORDER=
